<svg xmlns="http://www.w3.org/2000/svg" width="30" height="30" viewBox="0 0 30 30" fill="none">
  <g clip-path="url(#clip0_47_628)">
    <path d="M21.4482 8.55461C20.9607 8.06701 20.6753 7.41336 20.649 6.72439C20.6227 6.03543 20.8575 5.36193 21.3064 4.8386C21.3435 4.79507 21.3628 4.73912 21.3604 4.68197C21.358 4.62481 21.3341 4.57067 21.2935 4.53039L18.7077 1.94172C18.665 1.899 18.607 1.875 18.5466 1.875C18.4862 1.875 18.4282 1.899 18.3855 1.94172L14.264 6.06321C14.1119 6.21521 13.9973 6.40058 13.9294 6.60461C13.8617 6.80909 13.7473 6.99499 13.5953 7.14755C13.4432 7.30011 13.2577 7.41514 13.0534 7.48352C12.8493 7.55154 12.6638 7.66608 12.5114 7.81809L1.94172 18.3855C1.899 18.4282 1.875 18.4862 1.875 18.5466C1.875 18.607 1.899 18.665 1.94172 18.7077L4.52746 21.2935C4.56774 21.3341 4.62188 21.358 4.67904 21.3604C4.73619 21.3628 4.79214 21.3435 4.83567 21.3064C5.35889 20.857 6.03253 20.6219 6.72174 20.648C7.41094 20.6741 8.06484 20.9596 8.55253 21.4473C9.04022 21.935 9.32571 22.5889 9.35185 23.2781C9.37798 23.9673 9.14283 24.641 8.69348 25.1642C8.65635 25.2077 8.63705 25.2637 8.63944 25.3208C8.64183 25.378 8.66574 25.4321 8.70637 25.4724L11.2921 28.0581C11.3349 28.1008 11.3928 28.1248 11.4532 28.1248C11.5137 28.1248 11.5716 28.1008 11.6144 28.0581L22.1847 17.4884C22.3367 17.3361 22.4512 17.1506 22.5193 16.9464C22.587 16.7419 22.7014 16.556 22.8534 16.4035C23.0055 16.2509 23.191 16.1359 23.3952 16.0675C23.5993 15.9996 23.7846 15.885 23.9366 15.7329L28.0581 11.6114C28.1008 11.5687 28.1248 11.5107 28.1248 11.4503C28.1248 11.3899 28.1008 11.3319 28.0581 11.2892L25.4724 8.70344C25.4321 8.66281 25.378 8.6389 25.3208 8.63651C25.2637 8.63412 25.2077 8.65342 25.1642 8.69055C24.6416 9.14018 23.9685 9.37597 23.2795 9.35077C22.5906 9.32556 21.9365 9.04123 21.4482 8.55461Z" stroke="#FF7703" stroke-width="2" stroke-miterlimit="10"/>
    <path d="M14.6778 8.2291L13.7104 7.26172M17.2571 10.8084L16.612 10.1639M19.8364 13.3883L19.1919 12.7432M22.7386 16.2898L21.7712 15.3225" stroke="#FF7703" stroke-width="2" stroke-miterlimit="10" stroke-linecap="round"/>
  </g>
  <defs>
    <clipPath id="clip0_47_628">
      <rect width="30" height="30" fill="white"/>
    </clipPath>
  </defs>
</svg>