<svg width="30" height="30" viewBox="0 0 30 30" fill="none" xmlns="http://www.w3.org/2000/svg">
<g clip-path="url(#clip0_47_619)">
<path d="M15 1.00007L15.65 0.240066C15.4689 0.0851364 15.2384 0 15 0C14.7616 0 14.5311 0.0851364 14.35 0.240066L15 1.00007ZM1 13.0001L0.35 12.2401L0 12.5401V13.0001H1ZM11 29.0001V30.0001C11.2652 30.0001 11.5196 29.8947 11.7071 29.7072C11.8946 29.5196 12 29.2653 12 29.0001H11ZM19 29.0001H18C18 29.2653 18.1054 29.5196 18.2929 29.7072C18.4804 29.8947 18.7348 30.0001 19 30.0001V29.0001ZM29 13.0001H30V12.5401L29.65 12.2401L29 13.0001ZM3 30.0001H11V28.0001H3V30.0001ZM29.65 12.2401L15.65 0.240066L14.35 1.76007L28.35 13.7601L29.65 12.2401ZM14.35 0.240066L0.35 12.2401L1.65 13.7601L15.65 1.76007L14.35 0.240066ZM12 29.0001V23.0001H10V29.0001H12ZM18 23.0001V29.0001H20V23.0001H18ZM19 30.0001H27V28.0001H19V30.0001ZM30 27.0001V13.0001H28V27.0001H30ZM0 13.0001V27.0001H2V13.0001H0ZM15 20.0001C15.7956 20.0001 16.5587 20.3161 17.1213 20.8787C17.6839 21.4414 18 22.2044 18 23.0001H20C20 21.674 19.4732 20.4022 18.5355 19.4645C17.5979 18.5268 16.3261 18.0001 15 18.0001V20.0001ZM15 18.0001C13.6739 18.0001 12.4021 18.5268 11.4645 19.4645C10.5268 20.4022 10 21.674 10 23.0001H12C12 22.2044 12.3161 21.4414 12.8787 20.8787C13.4413 20.3161 14.2044 20.0001 15 20.0001V18.0001ZM27 30.0001C27.7956 30.0001 28.5587 29.684 29.1213 29.1214C29.6839 28.5588 30 27.7957 30 27.0001H28C28 27.2653 27.8946 27.5196 27.7071 27.7072C27.5196 27.8947 27.2652 28.0001 27 28.0001V30.0001ZM3 28.0001C2.73478 28.0001 2.48043 27.8947 2.29289 27.7072C2.10536 27.5196 2 27.2653 2 27.0001H0C0 27.7957 0.31607 28.5588 0.87868 29.1214C1.44129 29.684 2.20435 30.0001 3 30.0001V28.0001Z" fill="#FF7703"/>
</g>
<defs>
<clipPath id="clip0_47_619">
<rect width="30" height="30" fill="white"/>
</clipPath>
</defs>
</svg>
