<svg xmlns="http://www.w3.org/2000/svg" width="30" height="31" viewBox="0 0 30 31" fill="none">
  <g clip-path="url(#clip0_37_10)">
    <path d="M1.66667 30.5C1.19445 30.5 0.798894 30.26 0.480006 29.78C0.161117 29.3 0.00111686 28.7066 5.74712e-06 28C-0.00110536 27.2933 0.158895 26.7 0.480006 26.22C0.801117 25.74 1.19667 25.5 1.66667 25.5H28.3333C28.8055 25.5 29.2017 25.74 29.5217 26.22C29.8417 26.7 30.0011 27.2933 30 28C29.9989 28.7066 29.8389 29.3008 29.52 29.7825C29.2011 30.2641 28.8055 30.5033 28.3333 30.5H1.66667ZM1.66667 18C1.19445 18 0.798894 17.76 0.480006 17.28C0.161117 16.8 0.00111686 16.2066 5.74712e-06 15.5C-0.00110536 14.7933 0.158895 14.2 0.480006 13.72C0.801117 13.24 1.19667 13 1.66667 13H28.3333C28.8055 13 29.2017 13.24 29.5217 13.72C29.8417 14.2 30.0011 14.7933 30 15.5C29.9989 16.2066 29.8389 16.8008 29.52 17.2825C29.2011 17.7641 28.8055 18.0033 28.3333 18H1.66667ZM1.66667 5.49999C1.19445 5.49999 0.798894 5.25999 0.480006 4.77999C0.161117 4.3 0.00111686 3.70666 5.74712e-06 3C-0.00110536 2.29333 0.158895 1.7 0.480006 1.22C0.801117 0.74 1.19667 0.5 1.66667 0.5H28.3333C28.8055 0.5 29.2017 0.74 29.5217 1.22C29.8417 1.7 30.0011 2.29333 30 3C29.9989 3.70666 29.8389 4.30083 29.52 4.78249C29.2011 5.26416 28.8055 5.50333 28.3333 5.49999H1.66667Z" fill="black"/>
  </g>
  <defs>
    <clipPath id="clip0_37_10">
      <rect width="30" height="31" fill="white"/>
    </clipPath>
  </defs>
</svg>