<svg xmlns="http://www.w3.org/2000/svg" width="29" height="29" viewBox="0 0 29 29" fill="none">
  <path d="M1 14.5C1 16.2728 1.34919 18.0283 2.02763 19.6662C2.70606 21.3041 3.70047 22.7923 4.95406 24.0459C6.20765 25.2995 7.69588 26.2939 9.33377 26.9724C10.9717 27.6508 12.7272 28 14.5 28C16.2728 28 18.0283 27.6508 19.6662 26.9724C21.3041 26.2939 22.7923 25.2995 24.0459 24.0459C25.2995 22.7923 26.2939 21.3041 26.9724 19.6662C27.6508 18.0283 28 16.2728 28 14.5C28 12.7272 27.6508 10.9717 26.9724 9.33377C26.2939 7.69588 25.2995 6.20765 24.0459 4.95406C22.7923 3.70047 21.3041 2.70607 19.6662 2.02763C18.0283 1.34919 16.2728 1 14.5 1C12.7272 1 10.9717 1.34919 9.33377 2.02763C7.69588 2.70607 6.20765 3.70047 4.95406 4.95406C3.70047 6.20765 2.70606 7.69588 2.02763 9.33377C1.34919 10.9717 1 12.7272 1 14.5Z" stroke="#FF7703" stroke-width="2" stroke-linecap="round" stroke-linejoin="round"/>
  <path d="M18.7 10C18.4283 9.52864 18.0335 9.14005 17.5579 8.87583C17.0823 8.61161 16.5438 8.48169 16 8.5H13C12.2044 8.5 11.4413 8.81607 10.8787 9.37868C10.3161 9.94129 10 10.7044 10 11.5C10 12.2956 10.3161 13.0587 10.8787 13.6213C11.4413 14.1839 12.2044 14.5 13 14.5H16C16.7956 14.5 17.5587 14.8161 18.1213 15.3787C18.6839 15.9413 19 16.7043 19 17.5C19 18.2956 18.6839 19.0587 18.1213 19.6213C17.5587 20.1839 16.7956 20.5 16 20.5H13C12.4562 20.5183 11.9177 20.3884 11.4421 20.1242C10.9665 19.8599 10.5717 19.4714 10.3 19M14.5 7V22" stroke="#FF7703" stroke-width="2" stroke-linecap="round" stroke-linejoin="round"/>
</svg>