<svg xmlns="http://www.w3.org/2000/svg" width="34" height="34" viewBox="0 0 34 34" fill="none">
  <path d="M11.3756 22.7692L23.5076 11.2308M17 2L21.2899 4.44615L26.2713 4.86385L28.2294 9.24154L32 12.3615L30.879 17L32 21.6362L28.2294 24.7585L26.2713 29.1362L21.2899 29.5538L17 32L12.7126 29.5538L7.72873 29.1362L5.77305 24.7585L2 21.6362L3.121 17L2 12.3638L5.77305 9.24154L7.72873 4.86385L12.7126 4.44615L17 2ZM15.0152 13.5385C15.0152 14.1505 14.7596 14.7375 14.3045 15.1702C13.8495 15.603 13.2323 15.8462 12.5888 15.8462C11.9453 15.8462 11.3281 15.603 10.8731 15.1702C10.418 14.7375 10.1624 14.1505 10.1624 13.5385C10.1624 12.9264 10.418 12.3395 10.8731 11.9067C11.3281 11.4739 11.9453 11.2308 12.5888 11.2308C13.2323 11.2308 13.8495 11.4739 14.3045 11.9067C14.7596 12.3395 15.0152 12.9264 15.0152 13.5385ZM24.7208 21.6154C24.7208 22.2274 24.4652 22.8144 24.0101 23.2472C23.5551 23.6799 22.9379 23.9231 22.2944 23.9231C21.6509 23.9231 21.0337 23.6799 20.5787 23.2472C20.1236 22.8144 19.868 22.2274 19.868 21.6154C19.868 21.0033 20.1236 20.4164 20.5787 19.9836C21.0337 19.5508 21.6509 19.3077 22.2944 19.3077C22.9379 19.3077 23.5551 19.5508 24.0101 19.9836C24.4652 20.4164 24.7208 21.0033 24.7208 21.6154Z" stroke="#FF7703" stroke-width="2"/>
</svg>