<svg xmlns="http://www.w3.org/2000/svg" width="30" height="30" viewBox="0 0 30 30" fill="none">
  <g clip-path="url(#clip0_48_62)">
    <path d="M11.1729 3.5205C11.1729 2.46408 12.03 1.60693 13.0864 1.60693H26.4793C27.5357 1.60693 28.3928 2.46408 28.3928 3.5205V26.4791C28.3928 27.5355 27.5357 28.3926 26.4793 28.3926H19.7829" stroke="#FF7703" stroke-width="2.14286" stroke-linecap="round" stroke-linejoin="round"/>
    <path d="M5.43433 13.0861H9.33004C9.89832 13.0862 10.4433 13.312 10.845 13.7139L16.2858 19.1568C16.6879 19.5579 17.2328 19.783 17.8008 19.7825H20.7386M14.0422 11.6525C14.0422 12.5408 14.3951 13.3927 15.0232 14.0208C15.6513 14.6489 16.5032 15.0018 17.3915 15.0018C18.2798 15.0018 19.1317 14.6489 19.7598 14.0208C20.3879 13.3927 20.7408 12.5408 20.7408 11.6525C20.7408 10.7642 20.3879 9.91232 19.7598 9.28421C19.1317 8.65609 18.2798 8.30322 17.3915 8.30322C16.5032 8.30322 15.6513 8.65609 15.0232 9.28421C14.3951 9.91232 14.0422 10.7642 14.0422 11.6525Z" stroke="#FF7703" stroke-width="2.14286" stroke-linecap="round" stroke-linejoin="round"/>
    <path d="M13.0865 15.9556L7.97361 21.0684C7.57184 21.4703 7.02688 21.6962 6.45861 21.6963H1.60718" stroke="#FF7703" stroke-width="2.14286" stroke-linecap="round" stroke-linejoin="round"/>
    <path d="M9.25928 19.7827L12.4586 22.982C12.8605 23.3838 13.0863 23.9287 13.0864 24.497V28.3927" stroke="#FF7703" stroke-width="2.14286" stroke-linecap="round" stroke-linejoin="round"/>
  </g>
  <defs>
    <clipPath id="clip0_48_62">
      <rect width="30" height="30" fill="white"/>
    </clipPath>
  </defs>
</svg>