<svg xmlns="http://www.w3.org/2000/svg" width="50" height="50" viewBox="0 0 50 50" fill="none">
  <path d="M12.1333 7.5665L25 20.4332L37.8 7.63317C38.0828 7.33223 38.4234 7.09149 38.8014 6.92538C39.1794 6.75927 39.5871 6.67122 40 6.6665C40.8841 6.6665 41.7319 7.01769 42.357 7.64281C42.9822 8.26794 43.3333 9.11578 43.3333 9.99984C43.3411 10.4085 43.2653 10.8145 43.1105 11.1928C42.9558 11.5711 42.7253 11.9138 42.4333 12.1998L29.4667 24.9998L42.4333 37.9665C42.9827 38.504 43.3049 39.2318 43.3333 39.9998C43.3333 40.8839 42.9822 41.7317 42.357 42.3569C41.7319 42.982 40.8841 43.3332 40 43.3332C39.5752 43.3508 39.1514 43.2799 38.7554 43.125C38.3595 42.97 38.0001 42.7344 37.7 42.4332L25 29.5665L12.1667 42.3998C11.885 42.6907 11.5486 42.923 11.1767 43.0832C10.8048 43.2434 10.4049 43.3283 10 43.3332C9.11596 43.3332 8.26811 42.982 7.64299 42.3569C7.01787 41.7317 6.66668 40.8839 6.66668 39.9998C6.65891 39.5912 6.73473 39.1852 6.8895 38.8069C7.04426 38.4286 7.2747 38.0859 7.56668 37.7998L20.5333 24.9998L7.56668 12.0332C7.0173 11.4957 6.69515 10.7679 6.66668 9.99984C6.66668 9.11578 7.01787 8.26794 7.64299 7.64281C8.26811 7.01769 9.11596 6.6665 10 6.6665C10.8 6.6765 11.5667 6.99984 12.1333 7.5665Z" fill="#0D0D0D"/>
</svg>